<svg width="1920" height="1080" viewBox="0 0 1920 1080" fill="none" xmlns="http://www.w3.org/2000/svg">
<path opacity="0.1" d="M1.17012 2.58529L1917.83 1077.41M1.17012 1077.41L1917.83 2.58532M960.085 2.58529L1918.41 1077.41M960.085 1077.41L1918.41 2.58532M0.585061 2.58529L958.915 1077.41M0.585061 1077.41L958.915 2.58532M0.292707 1.58861L479.746 1077.41M0.292707 1077.41L479.746 1.58863M479.332 1.58861L958.497 1077.41M479.332 1077.41L958.497 1.58863M960.37 1.58861L1438.54 1077.41M960.37 1077.41L1438.54 1.58863M1439.41 1.58861L1918.57 1077.41M1439.41 1077.41L1918.57 1.58863M959.5 1V1079M479.41 1V1079M716.399 1V1079M1199.44 1V1079M238.36 1V1079M1678.48 1V1079M1438.91 1V1079M0 216.6H1919M0 863.576H1919M0 718.845H1919M0 359.511H1919" stroke="white" stroke-opacity="0.25" stroke-linecap="square"/>
</svg>
