<svg width="20" height="21" viewBox="0 0 20 21" fill="none" xmlns="http://www.w3.org/2000/svg">
<path fill-rule="evenodd" clip-rule="evenodd" d="M7.98716 3.03635C7.987 3.0364 7.98685 3.03644 7.98669 3.03648C4.47041 3.97866 2.13198 7.12246 2.05711 10.5874C1.71685 10.1121 1.45478 9.56867 1.29456 8.97073C0.579853 6.3034 2.16277 3.56172 4.8301 2.84701C5.91756 2.55562 7.01737 2.64615 7.98716 3.03635ZM7.98716 3.03635C12.2547 1.89313 16.6412 4.42576 17.7847 8.69333C18.9282 12.9611 16.3955 17.3478 12.1278 18.4913C7.86007 19.6348 3.47337 17.1022 2.32984 12.8344C2.12849 12.083 2.04111 11.3278 2.05711 10.5874C3.23473 12.2323 5.34889 13.0608 7.41829 12.5063C10.0856 11.7916 11.6685 9.04987 10.9538 6.38254C10.5305 4.80268 9.39606 3.60325 7.98716 3.03635Z" fill="black"/>
</svg>
