<svg width="98" height="21" viewBox="0 0 98 21" fill="none" xmlns="http://www.w3.org/2000/svg">
<path d="M25.272 15H27.852V9.804L31.368 13.884H33.636L37.152 9.708V15H39.72V6.6H37.008L32.52 11.76L28.008 6.6H25.272V15ZM42.2759 15H44.9279V6.6H42.2759V15ZM47.479 15H49.975V9.288L56.803 15H59.371V6.6H56.875V12.312L50.047 6.6H47.479V15ZM61.9165 15H64.5685V6.6H61.9165V15ZM67.1197 15H69.6997V9.804L73.2157 13.884H75.4837L78.9997 9.708V15H81.5677V6.6H78.8557L74.3677 11.76L69.8557 6.6H67.1197V15ZM90.0756 15.156C94.3476 15.156 96.7356 13.56 96.7356 10.812C96.7356 8.04 94.3476 6.444 90.0756 6.444C85.8036 6.444 83.4156 8.04 83.4156 10.812C83.4156 13.56 85.8036 15.156 90.0756 15.156ZM90.0756 13.116C87.3636 13.116 86.1276 12.372 86.1276 10.812C86.1276 9.24 87.3636 8.484 90.0756 8.484C92.7876 8.484 94.0236 9.24 94.0236 10.812C94.0236 12.372 92.7876 13.116 90.0756 13.116Z" fill="white"/>
<path fill-rule="evenodd" clip-rule="evenodd" d="M7.98716 3.03635C7.987 3.0364 7.98685 3.03644 7.98669 3.03648C4.47041 3.97866 2.13198 7.12246 2.05711 10.5874C1.71685 10.1121 1.45478 9.56867 1.29456 8.97073C0.579853 6.3034 2.16277 3.56172 4.8301 2.84701C5.91756 2.55562 7.01737 2.64615 7.98716 3.03635ZM7.98716 3.03635C12.2547 1.89313 16.6412 4.42576 17.7847 8.69333C18.9282 12.9611 16.3955 17.3478 12.1278 18.4913C7.86007 19.6348 3.47337 17.1022 2.32984 12.8344C2.12849 12.083 2.04111 11.3278 2.05711 10.5874C3.23473 12.2323 5.34889 13.0608 7.41829 12.5063C10.0856 11.7916 11.6685 9.04987 10.9538 6.38254C10.5305 4.80268 9.39606 3.60325 7.98716 3.03635Z" fill="white"/>
</svg>
